<?xml version="1.0" standalone="no"?>
<!DOCTYPE svg PUBLIC "-//W3C//DTD SVG 20010904//EN" "http://www.w3.org/TR/2001/REC-SVG-20010904/DTD/svg10.dtd">
<svg xmlns="http://www.w3.org/2000/svg" version="1.0" width="782.000000pt" height="299.000000pt" viewBox="0 0 782.000000 299.000000" preserveAspectRatio="xMidYMid meet" style="background-color:transparent;">
  <g transform="translate(0.000000,299.000000) scale(0.100000,-0.100000)" fill="#000000" stroke="none">
    <path d="M0 1495 l0 -1495 3910 0 3910 0 0 1495 0 1495 -3910 0 -3910 0 0 -1495z m4899 1384 c111 -38 231 -130 319 -244 12 -16 22 -33 22 -37 0 -9 -144 -220 -233 -341 l-49 -67 -32 40 c-61 77 -126 110 -216 110 -160 -1 -279 -194 -280 -455 0 -189 63 -346 171 -420 56 -39 138 -46 196 -16 44 22 93 75 118 127 30 64 31 64 -135 64 l-150 0 0 245 0 245 268 2 c147 2 312 3 367 3 149 2 137 15 130 -139 -3 -72 -11 -180 -16 -241 -53 -569 -310 -915 -680 -915 -160 0 -288 56 -417 182 -197 191 -302 489 -302 854 0 532 260 956 630 1028 59 11 226 -3 289 -25z m-4017 6 c188 -39 349 -173 443 -371 93 -194 127 -365 128 -644 1 -197 -7 -276 -43 -421 -74 -301 -252 -541 -459 -620 -70 -27 -202 -36 -280 -19 -158 34 -311 159 -415 337 -264 452 -227 1168 79 1526 66 78 164 155 231 183 51 21 148 42 201 43 23 1 75 -6 115 -14z m6040 -11 c93 -48 138 -122 208 -344 28 -91 62 -196 74 -235 13 -38 38 -118 56 -177 18 -59 37 -105 42 -102 4 3 8 201 8 440 l0 434 210 0 c161 0 210 -3 210 -12 0 -7 0 -407 0 -889 0 -942 0 -934 -52 -1037 -35 -70 -110 -122 -177 -122 -60 0 -143 54 -194 127 -16 23 -74 179 -142 378 -64 187 -120 344 -125 349 -7 7 -10 -136 -10 -407 l0 -417 -215 0 -216 0 3 923 c3 893 4 923 23 962 37 76 83 124 133 140 52 16 120 12 164 -11z m-5090 2 c111 -33 262 -165 319 -278 l27 -52 30 60 c45 89 113 166 188 214 85 53 140 70 237 70 l77 0 0 -304 0 -303 -54 -6 c-29 -3 -72 -15 -94 -26 -134 -69 -203 -300 -157 -535 32 -168 106 -252 253 -286 l52 -12 0 -279 0 -279 -90 0 c-144 0 -229 25 -295 87 -33 30 -95 107 -95 117 0 4 -12 24 -27 47 l-26 40 -39 -61 c-105 -166 -234 -236 -423 -228 l-80 3 -3 273 -2 272 48 0 c241 0 386 393 250 679 -54 115 -133 176 -242 190 l-51 6 -3 303 -2 302 78 0 c43 0 99 -6 124 -14z m1460 -394 c3 -371 5 -410 21 -435 30 -47 86 -29 102 33 3 14 7 192 9 395 2 204 4 380 5 393 l1 22 213 -2 212 -3 0 -470 c0 -420 -2 -477 -18 -535 -41 -151 -113 -255 -214 -312 l-53 -30 0 -339 0 -339 -210 0 -210 0 0 339 0 339 -55 26 c-95 47 -169 149 -211 293 -15 50 -18 120 -21 536 -2 263 -1 482 2 487 4 6 93 10 215 10 l209 0 3 -408z m3146 147 l2 -257 -107 -4 c-81 -3 -119 -9 -154 -25 -88 -40 -148 -111 -164 -196 l-7 -37 93 -2 c52 -1 148 -3 214 -4 l120 -1 3 -209 c1 -115 0 -219 -3 -231 -5 -23 -6 -23 -210 -23 -112 0 -206 -4 -209 -8 -9 -15 12 -84 41 -130 16 -26 48 -60 71 -76 42 -30 47 -31 178 -34 l134 -4 -2 -262 -3 -261 -165 0 c-202 0 -262 16 -383 101 -162 114 -282 340 -329 618 -19 111 -16 422 5 541 56 314 186 552 367 675 109 74 173 89 380 86 l125 -1 3 -256z m-5024 -1964 l36 -7 0 -59 0 -58 -107 -3 -108 -3 0 -55 0 -55 93 -3 92 -3 0 -54 0 -54 -92 -3 -93 -3 -3 -123 -3 -122 -69 0 -70 0 0 299 c0 216 3 300 11 303 22 7 276 9 313 3z m629 -3 l158 -2 -3 -72 -3 -73 -75 0 -75 0 -3 -227 -2 -228 -70 0 -70 0 -2 227 -3 228 -72 3 -73 3 0 68 c0 37 2 70 5 72 2 3 33 5 67 4 35 0 134 -2 221 -3z m1167 -63 l0 -59 -87 -1 c-49 0 -106 -2 -128 -3 l-40 -1 -3 -47 -3 -47 118 -3 118 -3 3 -61 3 -60 -118 0 -118 1 0 -60 0 -60 128 -3 127 -3 0 -64 0 -65 -200 0 -200 0 0 300 0 300 188 2 c103 2 193 1 200 -1 8 -2 12 -23 12 -62z m386 45 c43 -31 65 -67 71 -112 l6 -42 -69 0 c-68 0 -70 1 -81 30 -13 36 -36 46 -72 34 -20 -7 -26 -16 -26 -39 0 -27 5 -31 70 -55 90 -34 125 -52 152 -82 65 -69 57 -201 -16 -278 l-38 -40 -107 0 c-133 0 -158 11 -192 83 -34 74 -32 103 7 111 17 3 46 6 64 6 28 0 34 -5 47 -38 20 -50 56 -69 98 -52 35 14 48 50 32 85 -7 15 -30 30 -69 44 -156 57 -193 105 -181 230 5 55 28 91 78 121 48 29 184 26 226 -6z m457 15 c55 -28 97 -91 97 -145 0 -23 -3 -24 -70 -24 -62 0 -70 2 -70 19 0 28 -27 51 -59 51 -33 0 -51 -16 -51 -47 0 -25 19 -38 92 -60 66 -19 120 -54 149 -95 20 -27 24 -45 24 -103 0 -83 -24 -138 -75 -173 -29 -19 -46 -22 -134 -22 -106 0 -129 7 -168 55 -20 24 -53 123 -44 133 4 3 35 8 70 10 l64 4 7 -31 c7 -33 47 -71 75 -71 26 0 70 39 70 61 0 39 -20 57 -89 84 -134 51 -176 98 -175 196 2 112 66 169 192 169 40 0 83 -5 95 -11z m726 -18 c35 -25 70 -90 71 -128 0 -22 -4 -23 -68 -23 -66 0 -68 1 -79 30 -21 55 -98 52 -98 -5 0 -26 7 -31 95 -66 106 -43 143 -74 160 -140 23 -83 -13 -191 -76 -229 -46 -29 -215 -29 -261 0 -35 21 -68 76 -78 132 -6 31 -4 36 17 41 12 4 44 7 69 7 43 0 47 -2 55 -31 13 -46 56 -76 91 -63 15 5 34 21 42 36 24 42 4 72 -66 97 -114 41 -154 72 -179 137 -31 81 4 180 76 217 54 27 184 20 229 -12z m574 19 c4 0 7 -33 5 -72 l-3 -73 -66 3 c-96 5 -93 13 -86 -243 l6 -215 -74 0 -75 0 0 225 c0 207 -1 225 -17 226 -10 1 -43 2 -73 3 l-55 1 -3 64 c-2 35 -1 69 1 75 3 8 69 10 218 9 118 -2 218 -3 222 -3z m905 -6 c45 -7 95 -54 123 -116 34 -79 39 -250 9 -330 -26 -71 -52 -103 -101 -128 -32 -17 -59 -20 -174 -20 l-135 0 0 299 0 300 33 3 c39 4 200 -1 245 -8z m382 -292 l5 -302 -72 0 -73 0 0 298 c0 164 2 301 5 303 2 3 33 4 67 3 l63 -1 5 -301z m438 293 c50 -21 79 -50 110 -110 22 -43 27 -66 30 -158 6 -154 -21 -235 -98 -300 -30 -25 -38 -27 -131 -27 -108 0 -135 8 -181 57 -54 57 -72 116 -72 243 1 102 3 121 26 170 27 58 64 99 113 124 39 21 154 21 203 1z m-5398 -295 l0 -300 -70 0 -70 0 0 300 0 300 70 0 70 0 0 -300z m801 141 c46 -88 87 -158 91 -155 4 3 6 68 3 145 -2 77 -1 147 2 155 4 10 24 14 74 14 l69 0 0 -300 0 -300 -73 0 -72 0 -85 157 -85 158 -3 -157 -3 -158 -69 0 -70 0 0 300 0 300 69 0 69 0 83 -159z m3089 -45 c0 -113 4 -216 9 -229 5 -13 24 -30 42 -37 27 -12 36 -11 58 1 46 26 51 49 51 267 l0 202 70 0 70 0 0 -216 c0 -249 -6 -279 -66 -341 l-41 -43 -109 0 c-137 0 -160 12 -207 110 -19 41 -22 65 -25 268 l-4 222 76 0 76 0 0 -204z"/>
    <path d="M695 2221 c-23 -10 -60 -39 -83 -66 -59 -68 -83 -138 -89 -267 -9 -170 20 -279 97 -362 133 -144 332 -68 400 152 24 78 27 252 6 323 -58 190 -196 282 -331 220z"/>
    <path d="M6122 363 l3 -168 29 -3 c15 -2 39 -1 52 2 46 12 71 102 59 214 -9 84 -41 122 -104 122 l-41 0 2 -167z"/>
    <path d="M6928 520 c-35 -27 -51 -93 -47 -189 3 -61 9 -86 25 -108 43 -58 112 -55 148 6 24 41 33 158 17 217 -23 84 -88 118 -143 74z"/>
  </g>
</svg>
